<?xml version="1.0" standalone="no"?><!DOCTYPE svg PUBLIC "-//W3C//DTD SVG 1.1//EN" "http://www.w3.org/Graphics/SVG/1.1/DTD/svg11.dtd"><svg t="1670742301018" class="icon" viewBox="0 0 1024 1024" version="1.1" xmlns="http://www.w3.org/2000/svg" p-id="1392" xmlns:xlink="http://www.w3.org/1999/xlink" width="200" height="200"><path d="M491.872 761.056c0.992 0.512 1.82399999 1.344 2.848 1.792 18.304 8.8 40.70400001 5.92 55.424-9.664L884.256 399.936c18.208-19.264 17.344-49.632-1.88800001-67.872-19.264-18.208-49.63199999-17.376-67.87199999 1.888l-299.84 316.96L210.368 335.2c-18.39999999-19.072-48.768-19.648-67.872-1.248-9.792 9.408-14.688 21.984-14.688 34.56 0 11.99999999 4.48 24 13.44 33.312l337.376 350.048c0.672 0.672 1.6 0.928 2.304 1.6 0.48 0.512 0.832 1.056 1.344 1.568 2.848 2.72 6.33600001 4.16 9.6 6.016z" p-id="1393"></path></svg>